<svg width="286.6" height="99.002" viewBox="0 0 286.6 99.002" xmlns="http://www.w3.org/2000/svg"><g id="svgGroup" stroke-linecap="round" fill-rule="evenodd" font-size="9pt" stroke="#000000" stroke-width="0.25mm" fill="#000000" style="stroke:#000000;stroke-width:0.25mm;fill:#000000"><path d="M 118.632 88.285 A 46.036 46.036 0 0 0 120.361 86.704 A 18.419 18.419 0 0 0 125.25 91.602 Q 129.5 94.502 135.5 94.502 Q 142.6 94.502 148.2 89.452 Q 153.8 84.402 155.7 76.002 A 52.306 52.306 0 0 0 160.11 75.635 A 42.89 42.89 0 0 0 161.758 75.401 A 24.553 24.553 0 0 0 163.9 83.902 Q 166.1 88.702 170.35 91.602 Q 174.6 94.502 180.6 94.502 Q 187.7 94.502 193.3 89.452 Q 198.9 84.402 200.8 76.002 A 52.306 52.306 0 0 0 205.21 75.635 A 42.89 42.89 0 0 0 208.279 75.146 A 46.575 46.575 0 0 0 208.2 77.702 Q 208.2 85.302 211.15 89.902 Q 214.1 94.502 220.6 94.502 Q 227.059 94.502 234.25 87.678 A 57.215 57.215 0 0 0 235.194 86.751 A 18.419 18.419 0 0 0 240.05 91.602 Q 244.3 94.502 250.3 94.502 Q 257.4 94.502 263 89.452 Q 268.6 84.402 270.5 76.002 Q 277.7 75.702 283.7 73.602 Q 286.6 72.702 286.6 67.902 Q 286.6 65.902 285.9 64.602 Q 285.2 63.302 283.9 63.302 Q 283.3 63.302 282.5 63.502 Q 276 65.202 271.3 65.502 Q 270.5 57.802 265.85 52.552 Q 261.2 47.302 253.6 47.302 Q 247.4 47.302 242.3 50.652 Q 237.2 54.002 234.3 59.952 Q 231.4 65.902 231.4 73.502 A 28.272 28.272 0 0 0 231.404 73.938 A 24.553 24.553 0 0 0 231.693 77.51 A 77.791 77.791 0 0 1 229.961 79.366 A 42.627 42.627 0 0 1 228.3 81.002 Q 225.6 83.502 223.8 83.502 Q 221.9 83.502 221.1 81.902 Q 220.3 80.302 220.3 77.302 Q 220.3 73.402 222.7 62.402 Q 224.6 53.302 224.6 50.802 Q 224.6 47.402 219.5 47.402 Q 216.2 47.402 214.7 48.602 Q 213.2 49.802 212.3 53.002 A 96.723 96.723 0 0 0 211.042 57.71 A 115.141 115.141 0 0 0 209.672 64.263 A 65.425 65.425 0 0 1 205.378 65.08 A 43.088 43.088 0 0 1 201.6 65.502 Q 200.8 57.802 196.15 52.552 Q 191.5 47.302 183.9 47.302 Q 177.7 47.302 172.6 50.652 Q 167.5 54.002 164.6 59.952 A 27.572 27.572 0 0 0 162.836 64.629 A 65.425 65.425 0 0 1 160.278 65.08 A 43.088 43.088 0 0 1 156.5 65.502 Q 155.7 57.802 151.05 52.552 Q 146.4 47.302 138.8 47.302 Q 132.6 47.302 127.5 50.652 Q 122.4 54.002 119.5 59.952 Q 116.6 65.902 116.6 73.502 A 28.272 28.272 0 0 0 116.604 73.938 A 24.553 24.553 0 0 0 116.875 77.396 A 79.185 79.185 0 0 1 116.731 77.547 Q 114.508 79.858 112.8 81.152 Q 109.7 83.502 105.6 83.502 Q 103 83.502 101.4 81.752 Q 99.8 80.002 99.1 75.902 Q 110.4 60.502 117 44.802 Q 123.6 29.102 123.6 17.202 Q 123.6 8.902 120.85 4.452 Q 118.1 0.002 113.3 0.002 Q 104.8 0.002 98.65 11.202 Q 92.5 22.402 89.35 38.002 Q 86.2 53.602 86.2 65.802 Q 86.2 78.502 90.45 86.502 Q 94.7 94.502 103.5 94.502 Q 109.9 94.502 114.95 91.102 A 38.929 38.929 0 0 0 118.632 88.285 Z M 84.8 30.002 Q 84.8 38.502 78.8 44.652 Q 72.8 50.802 61.3 53.502 Q 67.5 55.202 70.7 59.052 Q 73.9 62.902 73.9 67.902 Q 73.9 75.802 68.95 81.602 Q 64 87.402 54.5 90.552 Q 45 93.702 31.6 93.702 Q 26.6 93.702 23.6 93.402 Q 23.5 96.202 21.2 97.602 Q 18.9 99.002 15.3 99.002 Q 11.7 99.002 10.35 97.402 Q 9 95.802 9.2 92.702 Q 10.1 78.702 12.7 63.352 Q 15.3 48.002 19.3 33.702 Q 20 31.202 22.1 30.202 Q 24.2 29.202 27.6 29.202 Q 33.7 29.202 33.7 32.602 Q 33.7 34.002 33.1 35.802 Q 30.5 43.602 27.9 56.952 Q 25.3 70.302 24.2 82.402 Q 29 82.802 32 82.802 Q 46 82.802 52.55 78.752 Q 59.1 74.702 59.1 68.402 Q 59.1 64.002 55.35 61.002 Q 51.6 58.002 42.8 57.702 Q 40.8 57.602 40 56.702 Q 39.2 55.802 39.2 53.802 Q 39.2 50.902 40.4 49.102 Q 41.6 47.302 44.8 47.202 Q 51.9 47.002 57.65 45.102 Q 63.4 43.202 66.7 39.752 Q 70 36.302 70 31.702 Q 70 25.902 64.3 22.552 Q 58.6 19.202 46.8 19.202 Q 36.1 19.202 26.1 21.952 Q 16.1 24.702 9.1 28.902 Q 5.9 30.802 3.7 30.802 Q 1.9 30.802 0.95 29.552 Q 0 28.302 0 26.402 Q 0 23.902 1.05 22.102 Q 2.1 20.302 6.1 18.002 Q 14.5 13.202 25.8 10.502 Q 37.1 7.802 48.9 7.802 Q 67 7.802 75.9 13.902 Q 84.8 20.002 84.8 30.002 Z M 111.1 9.902 Q 108.8 9.902 105.9 18.202 Q 103 26.502 100.8 38.802 Q 98.6 51.102 98.4 62.402 Q 105.5 50.702 109.7 38.952 Q 113.9 27.202 113.9 17.502 Q 113.9 9.902 111.1 9.902 Z M 138.9 57.902 L 138.4 57.902 Q 134.4 57.902 131.75 61.752 Q 129.1 65.602 129.1 72.602 Q 129.1 78.102 131.25 81.002 Q 133.4 83.902 136.3 83.902 Q 139.5 83.902 141.85 81.302 Q 144.2 78.702 145 73.802 Q 141.9 71.702 140.25 68.302 Q 138.6 64.902 138.6 61.102 Q 138.6 59.502 138.9 57.902 Z M 184 57.902 L 183.5 57.902 Q 179.5 57.902 176.85 61.752 Q 174.2 65.602 174.2 72.602 Q 174.2 78.102 176.35 81.002 Q 178.5 83.902 181.4 83.902 Q 184.6 83.902 186.95 81.302 Q 189.3 78.702 190.1 73.802 Q 187 71.702 185.35 68.302 Q 183.7 64.902 183.7 61.102 Q 183.7 59.502 184 57.902 Z M 253.7 57.902 L 253.2 57.902 Q 249.2 57.902 246.55 61.752 Q 243.9 65.602 243.9 72.602 Q 243.9 78.102 246.05 81.002 Q 248.2 83.902 251.1 83.902 Q 254.3 83.902 256.65 81.302 Q 259 78.702 259.8 73.802 Q 256.7 71.702 255.05 68.302 Q 253.4 64.902 253.4 61.102 Q 253.4 59.502 253.7 57.902 Z M 221.4 40.802 Q 217.2 40.802 215.1 38.852 Q 213 36.902 213 33.402 Q 213 29.902 215.75 27.552 Q 218.5 25.202 222.6 25.202 Q 226.3 25.202 228.6 27.002 Q 230.9 28.802 230.9 32.102 Q 230.9 36.102 228.3 38.452 Q 225.7 40.802 221.4 40.802 Z" vector-effect="non-scaling-stroke"/></g></svg>
